<?xml version="1.0" encoding="utf-8"?>
<!-- Generator: Adobe Illustrator 24.1.1, SVG Export Plug-In . SVG Version: 6.00 Build 0)  -->
<svg version="1.1" id="Capa_1" xmlns="http://www.w3.org/2000/svg" xmlns:xlink="http://www.w3.org/1999/xlink" x="0px" y="0px"
	 viewBox="0 0 837.2 371.2" style="enable-background:new 0 0 837.2 371.2;" xml:space="preserve">
<style type="text/css">
	.st0{fill:#4F2D41;}
	.st1{fill:#4B4B4B;}
</style>
<g>
	<path class="st0" d="M418.6,196.1c-51.3,0-93-41.7-93-93s41.7-93,93-93s93,41.7,93,93S469.9,196.1,418.6,196.1z M418.6,13.7
		c-49.3,0-89.5,40.1-89.5,89.5s40.1,89.5,89.5,89.5s89.5-40.1,89.5-89.5S468,13.7,418.6,13.7z"/>
	<path class="st0" d="M418.6,206.3c-56.9,0-103.2-46.3-103.2-103.2S361.7,0,418.6,0s103.2,46.3,103.2,103.2S475.5,206.3,418.6,206.3
		z M418.6,3.5c-54.9,0-99.7,44.7-99.7,99.7s44.7,99.7,99.7,99.7s99.7-44.7,99.7-99.7S473.6,3.5,418.6,3.5z"/>
	<g>
		<polygon class="st0" points="423.3,55.1 414,55.1 373.9,143.7 384.1,143.7 418.5,66.6 452.7,143.7 463.4,143.7 		"/>
		<polyline class="st0" points="421.5,120.5 425.2,112.1 439.3,143.8 445.8,143.8 421.4,90.1 415.8,90.1 391.5,143.8 397.6,143.8 
			418.5,97.1 422.2,105.4 404.8,143.8 411,143.8 421.5,120.5 		"/>
	</g>
	<g>
		<g>
			<polygon class="st0" points="46.8,285.5 38,285.5 0,369.5 9.6,369.5 42.3,296.5 74.6,369.5 84.8,369.5 			"/>
			<polyline class="st0" points="45.1,347.5 48.6,339.6 62,369.6 68.1,369.6 45.1,318.7 39.7,318.7 16.7,369.6 22.5,369.6 
				42.3,325.3 45.8,333.2 29.3,369.6 35.2,369.6 42.3,353.8 			"/>
		</g>
		<g>
			<g>
				<g>
					<path class="st1" d="M401.2,285.2h28.1c6.6,0,12.7,1.1,18.2,3.2c5.5,2.1,10.3,5.1,14.3,8.9c4,3.8,7.1,8.2,9.2,13.3
						c2.2,5.1,3.3,10.6,3.3,16.6v0.2c0,6-1.1,11.5-3.3,16.7c-2.2,5.2-5.3,9.6-9.2,13.4c-4,3.8-8.7,6.8-14.3,8.9
						c-5.5,2.2-11.6,3.3-18.2,3.3h-28.1V285.2z M429.4,364.1c5.9,0,11.2-0.9,15.9-2.8c4.8-1.9,8.8-4.5,12.1-7.8
						c3.3-3.3,5.9-7.1,7.7-11.5c1.8-4.4,2.7-9.1,2.7-14.2v-0.2c0-5-0.9-9.7-2.7-14.2c-1.8-4.4-4.4-8.3-7.7-11.6
						c-3.3-3.3-7.3-5.9-12.1-7.9c-4.8-1.9-10.1-2.9-15.9-2.9h-21.9v73.2H429.4z"/>
					<path class="st1" d="M495.7,285.2h60.1v5.7h-53.9v33.5h48.4v5.7h-48.4v34.1h54.5v5.7h-60.8V285.2z"/>
					<path class="st1" d="M614.9,371.2c-6,0-11.6-1.1-16.8-3.4c-5.2-2.3-9.6-5.3-13.3-9.2c-3.7-3.9-6.7-8.5-8.8-13.8
						c-2.1-5.3-3.1-11-3.1-17v-0.2c0-6,1.1-11.6,3.2-16.9c2.1-5.3,5.1-10,8.8-14c3.7-4,8.2-7.1,13.3-9.4c5.2-2.3,10.8-3.4,16.9-3.4
						c3.8,0,7.2,0.3,10.3,1c3.1,0.6,5.9,1.6,8.5,2.8c2.6,1.2,5.1,2.6,7.4,4.3c2.3,1.7,4.5,3.5,6.7,5.5l-4.5,4.6
						c-1.9-1.8-3.8-3.4-5.8-5c-2-1.5-4.2-2.8-6.5-3.9c-2.3-1.1-4.8-2-7.5-2.6c-2.7-0.6-5.6-1-8.8-1c-5.1,0-9.8,1-14.1,2.9
						c-4.3,1.9-8.1,4.6-11.3,8c-3.2,3.4-5.7,7.4-7.5,12c-1.8,4.6-2.7,9.5-2.7,14.9v0.2c0,5.3,0.9,10.3,2.8,14.9
						c1.9,4.6,4.4,8.7,7.5,12.1c3.2,3.4,6.9,6.1,11.3,8.1c4.3,2,9.1,3,14.1,3c6.1,0,11.4-1.1,15.9-3.4c4.5-2.3,8.9-5.5,13.2-9.8
						l4.2,4.1c-2.3,2.2-4.6,4.2-6.9,6c-2.4,1.8-4.9,3.4-7.6,4.6c-2.7,1.3-5.6,2.3-8.8,3C622,370.9,618.6,371.2,614.9,371.2z"/>
					<path class="st1" d="M704.4,371.2c-6.4,0-12.3-1.2-17.5-3.6c-5.2-2.4-9.6-5.6-13.3-9.5c-3.7-4-6.6-8.6-8.6-13.8
						c-2-5.2-3-10.7-3-16.5v-0.2c0-5.8,1-11.3,3.1-16.6c2.1-5.3,4.9-9.9,8.6-14c3.7-4,8.2-7.2,13.4-9.6c5.2-2.4,11.1-3.6,17.5-3.6
						c6.4,0,12.2,1.2,17.4,3.6c5.2,2.4,9.7,5.6,13.4,9.5c3.7,4,6.6,8.6,8.6,13.8c2,5.2,3,10.8,3,16.5c0.1,0.1,0.1,0.2,0,0.2
						c0,5.8-1,11.3-3.1,16.6c-2.1,5.3-4.9,9.9-8.6,14c-3.7,4-8.2,7.2-13.5,9.6C716.6,370,710.7,371.2,704.4,371.2z M704.6,365.5
						c5.2,0,10-1,14.4-3c4.4-2,8.2-4.7,11.4-8.1c3.2-3.4,5.7-7.4,7.4-12c1.8-4.6,2.7-9.5,2.7-14.7v-0.2c0-5.2-0.9-10.2-2.7-14.8
						c-1.8-4.6-4.3-8.7-7.5-12.1c-3.2-3.4-7-6.1-11.4-8.2c-4.4-2-9.3-3-14.5-3c-5.2,0-10,1-14.4,3c-4.4,2-8.2,4.7-11.4,8.1
						c-3.2,3.4-5.7,7.4-7.4,12c-1.8,4.6-2.7,9.5-2.7,14.7v0.2c0,5.2,0.9,10.2,2.7,14.8c1.8,4.6,4.3,8.7,7.5,12.1
						c3.2,3.4,7,6.1,11.4,8.2C694.6,364.5,699.4,365.5,704.6,365.5z"/>
					<path class="st1" d="M768.4,285.2h35.5c5.2,0,9.9,0.7,13.9,2.2c4,1.5,7.3,3.5,9.9,6.1c2,2,3.6,4.4,4.7,7.1
						c1.1,2.7,1.7,5.6,1.7,8.6v0.2c0,3.5-0.6,6.7-1.9,9.5c-1.2,2.8-3,5.2-5.2,7.2c-2.2,2-4.8,3.6-7.9,4.9c-3,1.2-6.3,2.1-9.8,2.6
						l27.9,36.1h-8l-26.9-35h-0.2h-27.4v35h-6.3V285.2z M803.2,329.1c3.5,0,6.8-0.4,9.8-1.3c3-0.9,5.6-2.2,7.8-3.8
						c2.2-1.7,3.9-3.7,5.1-6.1c1.2-2.4,1.9-5.1,1.9-8.2v-0.2c0-5.7-2.1-10.3-6.3-13.6c-4.2-3.3-10.2-5-17.9-5h-28.9v38.2H803.2z"/>
				</g>
			</g>
			<g>
				<path class="st0" d="M101.2,285.5h8.9l53.3,67.8v-67.8h9.3v84.5h-7.6l-54.6-69.3v69.3h-9.3V285.5z"/>
				<path class="st0" d="M196.7,285.5h8.9l53.3,67.8v-67.8h9.3v84.5h-7.6l-54.6-69.3v69.3h-9.3V285.5z"/>
				<path class="st0" d="M292.1,285.5h61.1v8.6h-51.6v29.1h46.1v8.6h-46.1v29.7h52.2v8.6h-61.7V285.5z"/>
			</g>
		</g>
	</g>
</g>
</svg>
